<svg width="32" height="32" viewBox="0 0 32 32" fill="none" xmlns="http://www.w3.org/2000/svg">
<path d="M5.33317 7.99984H2.6665V26.6665C2.6665 28.1332 3.8665 29.3332 5.33317 29.3332H23.9998V26.6665H5.33317V7.99984ZM26.6665 2.6665H10.6665C9.19984 2.6665 7.99984 3.8665 7.99984 5.33317V21.3332C7.99984 22.7998 9.19984 23.9998 10.6665 23.9998H26.6665C28.1332 23.9998 29.3332 22.7998 29.3332 21.3332V5.33317C29.3332 3.8665 28.1332 2.6665 26.6665 2.6665ZM26.6665 21.3332H10.6665V5.33317H26.6665V21.3332ZM17.3332 19.9998H19.9998V14.6665H25.3332V11.9998H19.9998V6.6665H17.3332V11.9998H11.9998V14.6665H17.3332V19.9998Z" fill="#808080"/>
</svg>
