<svg width="31" height="27" viewBox="0 0 31 27" fill="none" xmlns="http://www.w3.org/2000/svg">
<path d="M26.413 3.85714V0H23.7717V3.85714H19.8098V6.42857H23.7717V10.2857H26.413V6.42857H30.375V3.85714H26.413ZM22.4511 11.5714V7.71429H18.4891V3.85714H9.24457L6.82777 6.42857H2.64131C1.18859 6.42857 0 7.58571 0 9V24.4286C0 25.8429 1.18859 27 2.64131 27H23.7717C25.2245 27 26.413 25.8429 26.413 24.4286V11.5714H22.4511ZM13.2065 23.1429C9.56152 23.1429 6.60326 20.2629 6.60326 16.7143C6.60326 13.1657 9.56152 10.2857 13.2065 10.2857C16.8515 10.2857 19.8098 13.1657 19.8098 16.7143C19.8098 20.2629 16.8515 23.1429 13.2065 23.1429ZM17.4326 16.7143C17.4326 18.99 15.5441 20.8286 13.2065 20.8286C10.869 20.8286 8.98043 18.99 8.98043 16.7143C8.98043 14.4386 10.869 12.6 13.2065 12.6C15.5441 12.6 17.4326 14.4386 17.4326 16.7143Z" fill="black"/>
</svg>
