<svg width="32" height="32" viewBox="0 0 32 32" fill="none" xmlns="http://www.w3.org/2000/svg">
<path d="M19.5402 6.63983L12.8735 4.30649C12.3135 4.10649 11.7002 4.10649 11.1402 4.29316L5.82017 6.07983C4.74017 6.45316 4.00684 7.4665 4.00684 8.61316V24.4132C4.00684 26.2932 5.88684 27.5732 7.6335 26.8932L11.5402 25.3732C11.8335 25.2532 12.1668 25.2532 12.4602 25.3598L19.1268 27.6932C19.6868 27.8932 20.3002 27.8932 20.8602 27.7065L26.1802 25.9198C27.2602 25.5598 27.9935 24.5332 27.9935 23.3865V7.5865C27.9935 5.7065 26.1135 4.42649 24.3668 5.10649L20.4602 6.62649C20.1668 6.73316 19.8468 6.7465 19.5402 6.63983ZM20.0068 25.1865L12.0068 22.3732V6.81316L20.0068 9.62649V25.1865Z" fill="#F5401B"/>
</svg>
