<svg width="27" height="27" viewBox="0 0 27 27" fill="none" xmlns="http://www.w3.org/2000/svg">
<path d="M22.7368 7.10526V11.3542C22.7368 11.3542 19.9089 11.3684 19.8947 11.3542V7.10526H15.6316C15.6316 7.10526 15.6458 4.27737 15.6316 4.26316H19.8947V0H22.7368V4.26316H27V7.10526H22.7368ZM18.4737 12.7895V8.52632H14.2105V4.26316H2.84211C1.27895 4.26316 0 5.54211 0 7.10526V24.1579C0 25.7211 1.27895 27 2.84211 27H19.8947C21.4579 27 22.7368 25.7211 22.7368 24.1579V12.7895H18.4737ZM2.84211 24.1579L7.10526 18.4737L9.94737 22.7368L14.2105 17.0526L19.8947 24.1579H2.84211Z" fill="black"/>
</svg>
