<svg width="32" height="32" viewBox="0 0 32 32" fill="none" xmlns="http://www.w3.org/2000/svg">
<path d="M15.9999 8.00004C17.4666 8.00004 18.6666 9.20004 18.6666 10.6667C18.6666 12.1334 17.4666 13.3334 15.9999 13.3334C14.5333 13.3334 13.3333 12.1334 13.3333 10.6667C13.3333 9.20004 14.5333 8.00004 15.9999 8.00004ZM15.9999 21.3334C19.5999 21.3334 23.7333 23.0534 23.9999 24H7.99992C8.30659 23.04 12.4133 21.3334 15.9999 21.3334ZM15.9999 5.33337C13.0533 5.33337 10.6666 7.72004 10.6666 10.6667C10.6666 13.6134 13.0533 16 15.9999 16C18.9466 16 21.3333 13.6134 21.3333 10.6667C21.3333 7.72004 18.9466 5.33337 15.9999 5.33337ZM15.9999 18.6667C12.4399 18.6667 5.33325 20.4534 5.33325 24V26.6667H26.6666V24C26.6666 20.4534 19.5599 18.6667 15.9999 18.6667Z" fill="#808080"/>
</svg>
